<?xml version="1.0" encoding="UTF-8" standalone="no"?>
<!DOCTYPE svg PUBLIC "-//W3C//DTD SVG 1.1//EN" "http://www.w3.org/Graphics/SVG/1.1/DTD/svg11.dtd">
<svg width="100%" height="100%" viewBox="0 0 24 24" version="1.1" xmlns="http://www.w3.org/2000/svg" xmlns:xlink="http://www.w3.org/1999/xlink" xml:space="preserve" xmlns:serif="http://www.serif.com/" style="fill-rule:evenodd;clip-rule:evenodd;stroke-linejoin:round;stroke-miterlimit:2;">
    <g transform="matrix(1,0,0,1,-4521,-171)">
        <g id="画板8" transform="matrix(1,0,0,1,-122.086622,171)">
            <rect x="4643.087" y="0" width="24" height="24" style="fill:none;"/>
            <g transform="matrix(2.185656,0,0,2.185656,-5240.883586,-375.914543)">
                <g transform="matrix(13,0,0,13,4522.879111,182.057301)">
                    <path d="M0.174,-0L0.174,-0.138L0.349,-0.138C0.392,-0.138 0.429,-0.146 0.461,-0.163C0.493,-0.18 0.517,-0.205 0.535,-0.238C0.552,-0.27 0.561,-0.309 0.561,-0.354C0.561,-0.399 0.552,-0.437 0.534,-0.469C0.516,-0.501 0.492,-0.526 0.46,-0.543C0.428,-0.56 0.391,-0.569 0.349,-0.569L0.169,-0.569L0.169,-0.706L0.351,-0.706C0.404,-0.706 0.453,-0.697 0.498,-0.68C0.543,-0.663 0.583,-0.639 0.616,-0.607C0.65,-0.576 0.676,-0.539 0.694,-0.495C0.713,-0.452 0.722,-0.405 0.722,-0.353C0.722,-0.301 0.713,-0.254 0.694,-0.211C0.676,-0.168 0.65,-0.13 0.617,-0.099C0.583,-0.067 0.544,-0.043 0.499,-0.026C0.454,-0.009 0.405,-0 0.352,-0L0.174,-0ZM0.068,-0L0.068,-0.706L0.225,-0.706L0.225,-0L0.068,-0Z" style="fill:rgb(246,211,1);fill-rule:nonzero;"/>
                </g>
                <g transform="matrix(13,0,0,13,4532.681111,182.057301)">
                </g>
            </g>
            <g transform="matrix(2.185656,0,0,2.185656,-5242.286936,-375.914543)">
                <g transform="matrix(13,0,0,13,4522.879111,182.057301)">
                    <path d="M0.174,-0L0.174,-0.138L0.349,-0.138C0.392,-0.138 0.429,-0.146 0.461,-0.163C0.493,-0.18 0.517,-0.205 0.535,-0.238C0.552,-0.27 0.561,-0.309 0.561,-0.354C0.561,-0.399 0.552,-0.437 0.534,-0.469C0.516,-0.501 0.492,-0.526 0.46,-0.543C0.428,-0.56 0.391,-0.569 0.349,-0.569L0.169,-0.569L0.169,-0.706L0.351,-0.706C0.404,-0.706 0.453,-0.697 0.498,-0.68C0.543,-0.663 0.583,-0.639 0.616,-0.607C0.65,-0.576 0.676,-0.539 0.694,-0.495C0.713,-0.452 0.722,-0.405 0.722,-0.353C0.722,-0.301 0.713,-0.254 0.694,-0.211C0.676,-0.168 0.65,-0.13 0.617,-0.099C0.583,-0.067 0.544,-0.043 0.499,-0.026C0.454,-0.009 0.405,-0 0.352,-0L0.174,-0ZM0.068,-0L0.068,-0.706L0.225,-0.706L0.225,-0L0.068,-0Z" style="fill-rule:nonzero;"/>
                </g>
                <g transform="matrix(13,0,0,13,4532.681111,182.057301)">
                </g>
            </g>
        </g>
    </g>
</svg>
